# xmcd
#
# Track frame offsets: 
#        150
#        15812
#        38908
#        57981
#        75202
#        95377
#        119847
#        131443
#        143508
#        152865
#        169437
#
# Disc length: 2519 seconds
#
# Revision: 0
# Processed by: cddbd v1.5.2PL0 Copyright (c) Steve Scherf et al.
# Submitted via: ExactAudioCopyFreeDBPlugin 1.0
#
DISCID=8409d50b
DTITLE=Dos Santos - Logos
DYEAR=2018
DGENRE=No
TTITLE0=Acábame
TTITLE1=Córdva
TTITLE2=Return y regreso
TTITLE3=Logos
TTITLE4=Caminante
TTITLE5=Purísima
TTITLE6=Manos ajenas (touch you every day)
TTITLE7=How far are we from here?
TTITLE8=Coda
TTITLE9=Sole party
TTITLE10=(You are) my revolution.
EXTD=
EXTT0=
EXTT1=
EXTT2=
EXTT3=
EXTT4=
EXTT5=
EXTT6=
EXTT7=
EXTT8=
EXTT9=
EXTT10=
PLAYORDER=
